<svg width="36" height="36" viewBox="0 0 36 36" fill="none" xmlns="http://www.w3.org/2000/svg">
<mask id="path-1-inside-1_2042_4641" fill="white">
<path d="M0 18C0 8.05888 8.05888 0 18 0C27.9411 0 36 8.05888 36 18C36 27.9411 27.9411 36 18 36C8.05888 36 0 27.9411 0 18Z"/>
</mask>
<path d="M0 18C0 8.05888 8.05888 0 18 0C27.9411 0 36 8.05888 36 18C36 27.9411 27.9411 36 18 36C8.05888 36 0 27.9411 0 18Z" fill="white"/>
<path d="M18 35C8.61116 35 1 27.3888 1 18H-1C-1 28.4934 7.50659 37 18 37V35ZM35 18C35 27.3888 27.3888 35 18 35V37C28.4934 37 37 28.4934 37 18H35ZM18 1C27.3888 1 35 8.61116 35 18H37C37 7.50659 28.4934 -1 18 -1V1ZM18 -1C7.50659 -1 -1 7.50659 -1 18H1C1 8.61116 8.61116 1 18 1V-1Z" fill="#E2E8F0" mask="url(#path-1-inside-1_2042_4641)"/>
<path d="M23.0001 16.3333L19.6667 13M10.0834 25.9167L12.9037 25.6033C13.2483 25.565 13.4205 25.5459 13.5816 25.4937C13.7244 25.4475 13.8604 25.3821 13.9858 25.2995C14.1271 25.2063 14.2497 25.0837 14.4948 24.8386L25.5001 13.8333C26.4205 12.9128 26.4205 11.4205 25.5001 10.5C24.5796 9.57951 23.0872 9.57951 22.1667 10.5L11.1615 21.5052C10.9163 21.7504 10.7938 21.8729 10.7006 22.0142C10.6179 22.1396 10.5526 22.2756 10.5063 22.4185C10.4542 22.5795 10.435 22.7518 10.3967 23.0964L10.0834 25.9167Z" stroke="black" stroke-width="1.5" stroke-linecap="round" stroke-linejoin="round"/>
</svg>
