<svg width="21" height="20" viewBox="0 0 21 20" fill="none" xmlns="http://www.w3.org/2000/svg">
<path d="M15.625 7L10.1907 12.4343C9.99268 12.6323 9.89367 12.7313 9.77951 12.7684C9.67909 12.8011 9.57091 12.8011 9.47049 12.7684C9.35633 12.7313 9.25732 12.6323 9.05931 12.4343L7.19069 10.5657C6.99268 10.3677 6.89367 10.2687 6.77951 10.2316C6.67909 10.1989 6.57091 10.1989 6.47049 10.2316C6.35633 10.2687 6.25732 10.3677 6.05931 10.5657L1.625 15M15.625 7H11.625M15.625 7V11M6.425 19H14.825C16.5052 19 17.3452 19 17.987 18.673C18.5515 18.3854 19.0104 17.9265 19.298 17.362C19.625 16.7202 19.625 15.8802 19.625 14.2V5.8C19.625 4.11984 19.625 3.27976 19.298 2.63803C19.0104 2.07354 18.5515 1.6146 17.987 1.32698C17.3452 1 16.5052 1 14.825 1H6.425C4.74484 1 3.90476 1 3.26303 1.32698C2.69854 1.6146 2.2396 2.07354 1.95198 2.63803C1.625 3.27976 1.625 4.11984 1.625 5.8V14.2C1.625 15.8802 1.625 16.7202 1.95198 17.362C2.2396 17.9265 2.69854 18.3854 3.26303 18.673C3.90476 19 4.74484 19 6.425 19Z" stroke="#737373" stroke-width="2" stroke-linecap="round" stroke-linejoin="round"/>
</svg>

