<svg width="179" height="191" viewBox="0 0 179 191" fill="none" xmlns="http://www.w3.org/2000/svg">
<path d="M53.4018 170.281L51.0007 187.796C41.442 193.415 33.683 188.061 33.683 188.061L23.7227 149.89C31.7841 158.608 41.9381 165.585 53.4018 170.281Z" fill="#DB8896"/>
<path d="M111.958 174.099L109.386 186.901C99.5863 195.952 90.541 187.19 90.541 187.19L89.0894 177.035C92.8839 177.002 96.7333 176.75 100.614 176.245C104.483 175.741 108.268 175.021 111.958 174.099Z" fill="#DB8896"/>
<path d="M55.9133 65.9158C57.8796 65.8858 59.5286 69.5534 59.5933 74.1112C59.658 78.6575 58.1137 82.3739 56.1474 82.4039C54.181 82.4339 52.532 78.7668 52.4673 74.2206C52.4026 69.6627 53.9464 65.9463 55.9133 65.9158Z" fill="#333523"/>
<path d="M29.177 95.544C45.4652 95.2943 58.8264 105.687 59.0116 118.759C59.1973 131.832 46.1368 142.63 29.8486 142.88C24.9668 142.955 20.3494 142.075 16.2766 140.454C10.0349 131.119 5.89032 120.356 4.49732 108.649C4.4317 108.109 4.37772 107.556 4.32373 107.016C9.45821 100.273 18.6386 95.7056 29.177 95.544ZM37.2138 118.853C37.1272 112.744 36.0735 107.804 34.8704 107.823C33.6557 107.841 32.7425 112.811 32.8296 118.921C32.9161 125.03 33.9699 129.97 35.1846 129.951C36.3877 129.932 37.3008 124.962 37.2138 118.853ZM17.771 119.392C17.6845 113.282 16.6308 108.343 15.416 108.362C14.2129 108.38 13.2998 113.35 13.3868 119.459C13.4734 125.569 14.5271 130.508 15.7302 130.49C16.9449 130.471 17.8581 125.501 17.771 119.392Z" fill="#CB5D63"/>
<path d="M34.8708 107.822C36.0739 107.804 37.1276 112.744 37.2141 118.853C37.3007 124.963 36.388 129.932 35.1849 129.951C33.9702 129.97 32.9165 125.029 32.8299 118.92C32.7433 112.811 33.6565 107.841 34.8708 107.822Z" fill="#983D52"/>
<path d="M112.75 26.8767L125.984 33.9994C125.099 33.6525 102.995 25.174 82.2471 35.6807L70.6484 29.6515C70.6484 29.6515 91.5629 21.115 112.75 26.8767Z" fill="#A85A65"/>
<path d="M171.315 126.66L168.373 155.815C168.373 155.815 160.388 163.877 152.77 157.041L151.706 152.955C160.011 145.442 166.699 136.486 171.303 126.66H171.315Z" fill="#DB8896"/>
<path d="M14.8347 67.4242C12.8683 67.4542 11.324 71.1707 11.3887 75.7169C11.4534 80.2747 13.1019 83.9423 15.0688 83.9123C17.0352 83.8823 18.5794 80.1654 18.5147 75.6075C18.45 71.0613 16.8011 67.3938 14.8347 67.4242ZM112.9 26.9103C112.83 26.8392 112.388 26.6896 112.749 26.8764C91.5624 21.1148 70.6479 29.6513 70.6479 29.6513L82.2466 35.6805C102.994 25.1738 125.099 33.6517 125.983 33.9991L112.749 26.8764C112.842 26.8991 112.889 26.9103 112.9 26.9103ZM153.01 39.4903C166.567 51.4433 175.753 67.6739 177.973 86.333C179.655 100.477 177.131 114.277 171.302 126.66C166.697 136.486 160.009 145.442 151.704 152.955C140.875 162.805 127.28 170.243 111.958 174.098C108.269 175.021 104.483 175.741 100.614 176.245C96.7336 176.75 92.8842 177.002 89.0896 177.035C76.4214 177.158 64.3192 174.757 53.4024 170.281C41.9387 165.586 31.7847 158.608 23.7232 149.891V149.879C20.9852 146.925 18.4994 143.788 16.277 140.454C20.3499 142.075 24.9673 142.955 29.849 142.88C46.1372 142.63 59.1978 131.832 59.0121 118.759C58.8264 105.687 45.4652 95.2943 29.1774 95.544C18.639 95.7056 9.45865 100.273 4.32417 107.016C2.85857 91.798 6.24726 77.0102 13.3523 64.0064C18.8782 53.8775 26.6525 44.8325 36.1522 37.4935C48.7873 27.7125 64.4509 20.9648 81.8677 18.7246C109.217 15.2021 134.976 23.564 153.01 39.4903ZM59.5924 74.111C59.5277 69.5532 57.8792 65.8856 55.9124 65.9156C53.9455 65.9456 52.4017 69.6625 52.4664 74.2204C52.5307 78.7666 54.1796 82.4337 56.1465 82.4037C58.1133 82.3737 59.6571 78.6572 59.5924 74.111Z" fill="#DB8896"/>
<path d="M15.4163 108.362C16.631 108.343 17.6847 113.283 17.7713 119.392C17.8578 125.501 16.9451 130.471 15.7304 130.49C14.5273 130.508 13.4736 125.569 13.387 119.459C13.3005 113.35 14.2136 108.38 15.4163 108.362Z" fill="#983D52"/>
<path d="M16.2762 140.454C6.72305 136.667 0.131816 128.829 0.00196428 119.665C-0.0636595 115.035 1.51783 110.704 4.32336 107.016C4.37735 107.557 4.43133 108.109 4.49696 108.649C5.88995 120.356 10.0345 131.118 16.2762 140.454Z" fill="#CB5D63"/>
<path d="M14.8356 67.4244C16.802 67.3939 18.451 71.0615 18.5157 75.6077C18.5803 80.1655 17.0361 83.8824 15.0697 83.9124C13.1033 83.9424 11.4543 80.2749 11.3897 75.717C11.325 71.1708 12.8692 67.4544 14.8356 67.4244Z" fill="#333523"/>
<path d="M21.2972 27.8941C26.4153 24.9165 32.7487 32.5419 36.1514 37.4936C26.6518 44.8326 18.8775 53.8771 13.3516 64.0065C13.4744 59.6141 14.5035 31.8355 21.2972 27.8941Z" fill="#DB8896"/>
<path d="M36.9597 39.5622C36.9597 39.5622 41.4273 17.3508 50.2181 16.6497C59.0089 15.9486 63.8734 35.195 63.8734 35.195C63.8734 35.195 35.8432 55.2365 36.9597 39.5622Z" fill="#DB8896"/>
<path d="M92.6246 27.2289C99.8124 27.1355 105.566 21.0022 105.476 13.5299C105.387 6.05751 99.487 0.0757021 92.2992 0.169116C85.1115 0.26253 79.3575 6.39579 79.4474 13.8682C79.5372 21.3405 85.4369 27.3223 92.6246 27.2289Z" fill="#FFCE00"/>
<path d="M94.7793 19.1804C96.4548 18.4391 97.4917 17.244 97.5788 15.8984C97.7017 13.9964 95.9661 12.407 94.2738 11.8893C94.0607 11.823 93.8405 11.778 93.6223 11.7277C93.3044 9.90356 92.96 8.08526 92.5946 6.2718C93.4426 6.23164 94.3106 6.51566 94.951 6.80258C95.348 6.98063 95.7669 7.27191 95.7511 7.55544C95.7376 7.79301 95.9251 8.00736 96.1695 8.03155C96.4138 8.05671 96.6228 7.88494 96.6363 7.64689C96.6726 7.00434 96.1932 6.42615 95.2866 6.01972C94.2552 5.55474 93.2802 5.35394 92.4178 5.41345C92.2377 4.53624 92.0659 3.6566 91.8742 2.78374C91.8225 2.54811 91.5865 2.38699 91.3473 2.42666C91.1081 2.46489 90.9563 2.68746 91.008 2.92309C91.2007 3.80176 91.3738 4.68769 91.5553 5.57071C91.5521 5.57167 91.5484 5.57167 91.5451 5.57264C90.2694 5.98198 89.3316 7.19304 89.2641 8.51927C89.1971 9.84501 90.0041 11.2278 91.2263 11.881C91.7517 12.1631 92.3093 12.303 92.8576 12.4244C93.2104 14.4856 93.5269 16.5492 93.8168 18.6118C92.5011 19.0642 91.3357 19.1392 90.3564 18.8257C89.3674 18.5126 88.3272 17.5711 88.3202 16.4476C88.3188 16.2081 88.1196 16.0087 87.8748 15.9957C87.6295 15.985 87.4327 16.1694 87.4341 16.4084C87.4434 17.9098 88.6842 19.1194 89.9566 19.5906C90.0111 19.611 90.0656 19.6298 90.12 19.6473C91.2347 20.0034 92.5197 19.94 93.9336 19.491C94.077 20.5424 94.2259 21.5948 94.352 22.6437C94.373 22.8174 94.4954 22.9602 94.6546 23.0192C94.7137 23.041 94.7783 23.0516 94.844 23.0473C95.0874 23.0313 95.2615 22.8252 95.2326 22.5871C95.0948 21.453 94.9352 20.3164 94.7793 19.1804ZM94.0467 12.7128C95.4151 13.1356 96.7843 14.4077 96.6945 15.8002C96.614 17.0422 95.5049 17.8299 94.6569 18.2572C94.3916 16.3876 94.1068 14.5175 93.7903 12.6494C93.875 12.6716 93.9625 12.6866 94.0467 12.7128ZM91.62 11.1277C90.7036 10.6371 90.0986 9.60019 90.1484 8.60588C90.1968 7.65561 90.8442 6.79 91.7355 6.44696C92.0738 8.12881 92.3926 9.81501 92.6896 11.5061C92.3098 11.4132 91.9486 11.3038 91.62 11.1277Z" fill="#E0B500"/>
</svg>
