<svg width="23" height="22" viewBox="0 0 23 22" fill="none" xmlns="http://www.w3.org/2000/svg">
<path d="M11.875 14C13.5319 14 14.875 12.6569 14.875 11C14.875 9.34315 13.5319 8 11.875 8C10.2181 8 8.875 9.34315 8.875 11C8.875 12.6569 10.2181 14 11.875 14Z" stroke="#737373" stroke-width="2" stroke-linecap="round" stroke-linejoin="round"/>
<path d="M18.6023 13.7273C18.4813 14.0015 18.4452 14.3056 18.4986 14.6005C18.5521 14.8954 18.6927 15.1676 18.9023 15.3818L18.9568 15.4364C19.1259 15.6052 19.26 15.8057 19.3515 16.0265C19.443 16.2472 19.4901 16.4838 19.4901 16.7227C19.4901 16.9617 19.443 17.1983 19.3515 17.419C19.26 17.6397 19.1259 17.8402 18.9568 18.0091C18.788 18.1781 18.5874 18.3122 18.3667 18.4037C18.146 18.4952 17.9094 18.5423 17.6705 18.5423C17.4315 18.5423 17.1949 18.4952 16.9742 18.4037C16.7535 18.3122 16.553 18.1781 16.3841 18.0091L16.3295 17.9545C16.1153 17.745 15.8432 17.6044 15.5483 17.5509C15.2534 17.4974 14.9492 17.5335 14.675 17.6545C14.4061 17.7698 14.1768 17.9611 14.0153 18.205C13.8538 18.4489 13.7671 18.7347 13.7659 19.0273V19.1818C13.7659 19.664 13.5744 20.1265 13.2334 20.4675C12.8924 20.8084 12.4299 21 11.9477 21C11.4655 21 11.0031 20.8084 10.6621 20.4675C10.3211 20.1265 10.1295 19.664 10.1295 19.1818V19.1C10.1225 18.7991 10.0251 18.5073 9.85001 18.2625C9.67491 18.0176 9.43021 17.8312 9.14773 17.7273C8.87353 17.6063 8.56937 17.5702 8.27447 17.6236C7.97956 17.6771 7.70744 17.8177 7.49318 18.0273L7.43864 18.0818C7.26978 18.2509 7.06925 18.385 6.84853 18.4765C6.6278 18.568 6.39121 18.6151 6.15227 18.6151C5.91334 18.6151 5.67674 18.568 5.45602 18.4765C5.23529 18.385 5.03477 18.2509 4.86591 18.0818C4.69686 17.913 4.56275 17.7124 4.47126 17.4917C4.37976 17.271 4.33266 17.0344 4.33266 16.7955C4.33266 16.5565 4.37976 16.3199 4.47126 16.0992C4.56275 15.8785 4.69686 15.678 4.86591 15.5091L4.92045 15.4545C5.13003 15.2403 5.27062 14.9682 5.3241 14.6733C5.37757 14.3784 5.34147 14.0742 5.22045 13.8C5.10522 13.5311 4.91387 13.3018 4.66997 13.1403C4.42607 12.9788 4.14026 12.8921 3.84773 12.8909H3.69318C3.21097 12.8909 2.74851 12.6994 2.40753 12.3584C2.06656 12.0174 1.875 11.5549 1.875 11.0727C1.875 10.5905 2.06656 10.1281 2.40753 9.78708C2.74851 9.4461 3.21097 9.25455 3.69318 9.25455H3.775C4.0759 9.24751 4.36773 9.15011 4.61254 8.97501C4.85736 8.79991 5.04383 8.55521 5.14773 8.27273C5.26874 7.99853 5.30484 7.69437 5.25137 7.39947C5.1979 7.10456 5.05731 6.83244 4.84773 6.61818L4.79318 6.56364C4.62413 6.39478 4.49003 6.19425 4.39853 5.97353C4.30703 5.7528 4.25993 5.51621 4.25993 5.27727C4.25993 5.03834 4.30703 4.80174 4.39853 4.58102C4.49003 4.36029 4.62413 4.15977 4.79318 3.99091C4.96204 3.82186 5.16257 3.68775 5.38329 3.59626C5.60401 3.50476 5.84061 3.45766 6.07955 3.45766C6.31848 3.45766 6.55508 3.50476 6.7758 3.59626C6.99652 3.68775 7.19705 3.82186 7.36591 3.99091L7.42045 4.04545C7.63471 4.25503 7.90683 4.39562 8.20174 4.4491C8.49664 4.50257 8.8008 4.46647 9.075 4.34545H9.14773C9.41661 4.23022 9.64593 4.03887 9.80745 3.79497C9.96897 3.55107 10.0557 3.26526 10.0568 2.97273V2.81818C10.0568 2.33597 10.2484 1.87351 10.5894 1.53253C10.9303 1.19156 11.3928 1 11.875 1C12.3572 1 12.8197 1.19156 13.1606 1.53253C13.5016 1.87351 13.6932 2.33597 13.6932 2.81818V2.9C13.6943 3.19253 13.781 3.47834 13.9426 3.72224C14.1041 3.96614 14.3334 4.15749 14.6023 4.27273C14.8765 4.39374 15.1806 4.42984 15.4755 4.37637C15.7704 4.3229 16.0426 4.18231 16.2568 3.97273L16.3114 3.91818C16.4802 3.74913 16.6807 3.61503 16.9015 3.52353C17.1222 3.43203 17.3588 3.38493 17.5977 3.38493C17.8367 3.38493 18.0733 3.43203 18.294 3.52353C18.5147 3.61503 18.7152 3.74913 18.8841 3.91818C19.0531 4.08704 19.1872 4.28757 19.2787 4.50829C19.3702 4.72901 19.4173 4.96561 19.4173 5.20455C19.4173 5.44348 19.3702 5.68008 19.2787 5.9008C19.1872 6.12152 19.0531 6.32205 18.8841 6.49091L18.8295 6.54545C18.62 6.75971 18.4794 7.03183 18.4259 7.32674C18.3724 7.62164 18.4085 7.9258 18.5295 8.2V8.27273C18.6448 8.54161 18.8361 8.77093 19.08 8.93245C19.3239 9.09397 19.6097 9.18065 19.9023 9.18182H20.0568C20.539 9.18182 21.0015 9.37338 21.3425 9.71435C21.6834 10.0553 21.875 10.5178 21.875 11C21.875 11.4822 21.6834 11.9447 21.3425 12.2856C21.0015 12.6266 20.539 12.8182 20.0568 12.8182H19.975C19.6825 12.8193 19.3967 12.906 19.1528 13.0676C18.9089 13.2291 18.7175 13.4584 18.6023 13.7273Z" stroke="#8B5CF6" stroke-width="2" stroke-linecap="round" stroke-linejoin="round"/>
</svg>